<svg version="1.1" id="Layer_1" xmlns="http://www.w3.org/2000/svg" xmlns:xlink="http://www.w3.org/1999/xlink" x="0px" y="0px"
	 width="100%" viewBox="0 0 1211 566" enable-background="new 0 0 1211 566" xml:space="preserve">
<path fill="#333030" opacity="1.000000" stroke="none" 
	d="
M0.999993,563.000000 
	C1.000000,375.706238 1.000000,188.412476 1.000000,1.062684 
	C404.666656,1.062684 808.333313,1.062684 1212.000000,1.062684 
	C1212.000000,71.777107 1212.000000,142.428848 1211.636963,213.406433 
	C1193.006226,208.750626 1174.561646,207.338745 1155.584351,208.751602 
	C1138.290283,210.039108 1121.228027,212.336288 1104.606812,216.881485 
	C1083.464478,222.663040 1062.149170,228.330399 1041.765503,236.252121 
	C1007.708252,249.487808 974.217834,264.213745 940.713074,278.826355 
	C923.540039,286.316101 906.874939,294.966248 889.940430,303.007996 
	C859.202759,317.604523 828.522949,332.327667 797.642395,346.616425 
	C782.727173,353.517853 767.163574,358.789948 750.582581,359.945129 
	C733.437012,361.139648 716.267395,361.989166 699.109558,363.010010 
	C693.998840,363.314087 688.887085,363.622559 683.784851,364.040039 
	C668.013855,365.330505 652.250610,366.716888 636.477844,367.984619 
	C623.323914,369.041901 610.158936,369.961578 597.002075,370.983459 
	C580.067078,372.298859 563.131470,373.607971 546.203369,375.008301 
	C530.767273,376.285217 515.291931,377.273712 499.923126,379.128479 
	C481.686890,381.329285 463.415131,383.645691 445.397278,387.141571 
	C423.248505,391.438934 401.022369,395.903809 379.403961,402.252045 
	C332.725342,415.959167 288.756104,436.747986 244.354797,456.311981 
	C224.831268,464.914368 205.454071,473.848419 185.956238,482.509888 
	C151.773315,497.694885 117.610764,512.928467 83.321732,527.871094 
	C55.972187,539.789612 28.447140,551.305420 0.999993,563.000000 
z"/>
<path fill="#333030" opacity="1.000000" stroke="none" 
	d="
M1212.000000,238.000000 
	C1212.000000,347.635223 1212.000000,457.270477 1212.000000,567.000000 
	C837.638672,567.000000 463.277283,567.000000 88.575806,566.669922 
	C106.990585,555.838379 125.661644,545.183655 144.520599,534.872620 
	C170.619247,520.603271 196.574722,506.029266 223.115021,492.622040 
	C252.458878,477.798492 282.036285,463.320038 312.189270,450.254333 
	C334.531372,440.573151 357.674896,432.476562 380.964783,425.309937 
	C415.868469,414.569519 451.958099,409.347748 488.275055,406.108154 
	C505.551544,404.567017 522.912659,403.219604 540.240356,403.157227 
	C582.005554,403.006897 623.774170,403.614136 665.540405,404.018280 
	C688.146057,404.237061 710.749817,404.656189 733.354126,405.006744 
	C739.165100,405.096863 744.974609,405.272644 750.784912,405.404053 
	C757.577515,405.557678 764.425171,406.327026 771.152039,405.732727 
	C787.340759,404.302490 800.854736,395.860657 814.499390,387.981293 
	C832.094055,377.820923 849.416138,367.164337 867.262146,357.469818 
	C890.527344,344.831360 914.064209,332.674286 937.719116,320.777191 
	C961.527893,308.802734 985.619080,297.389557 1009.596619,285.751190 
	C1034.566406,273.631226 1060.209106,263.173004 1086.742798,254.994141 
	C1109.389771,248.013306 1132.553589,243.662766 1156.208618,241.990875 
	C1174.806885,240.676376 1193.402954,239.331421 1212.000000,238.000000 
z"/>
<path fill="#ADCF04" opacity="1.000000" stroke="none" 
	d="
M1212.000000,237.545898 
	C1193.402954,239.331421 1174.806885,240.676376 1156.208618,241.990875 
	C1132.553589,243.662766 1109.389771,248.013306 1086.742798,254.994141 
	C1060.209106,263.173004 1034.566406,273.631226 1009.596619,285.751190 
	C985.619080,297.389557 961.527893,308.802734 937.719116,320.777191 
	C914.064209,332.674286 890.527344,344.831360 867.262146,357.469818 
	C849.416138,367.164337 832.094055,377.820923 814.499390,387.981293 
	C800.854736,395.860657 787.340759,404.302490 771.152039,405.732727 
	C764.425171,406.327026 757.577515,405.557678 750.784912,405.404053 
	C744.974609,405.272644 739.165100,405.096863 733.354126,405.006744 
	C710.749817,404.656189 688.146057,404.237061 665.540405,404.018280 
	C623.774170,403.614136 582.005554,403.006897 540.240356,403.157227 
	C522.912659,403.219604 505.551544,404.567017 488.275055,406.108154 
	C451.958099,409.347748 415.868469,414.569519 380.964783,425.309937 
	C357.674896,432.476562 334.531372,440.573151 312.189270,450.254333 
	C282.036285,463.320038 252.458878,477.798492 223.115021,492.622040 
	C196.574722,506.029266 170.619247,520.603271 144.520599,534.872620 
	C125.661644,545.183655 106.990585,555.838379 88.117859,566.669922 
	C59.000000,567.000000 29.999998,567.000000 1.000000,567.000000 
	C1.000000,565.988953 1.000000,564.994446 0.999993,563.500000 
	C28.447140,551.305420 55.972187,539.789612 83.321732,527.871094 
	C117.610764,512.928467 151.773315,497.694885 185.956238,482.509888 
	C205.454071,473.848419 224.831268,464.914368 244.354797,456.311981 
	C288.756104,436.747986 332.725342,415.959167 379.403961,402.252045 
	C401.022369,395.903809 423.248505,391.438934 445.397278,387.141571 
	C463.415131,383.645691 481.686890,381.329285 499.923126,379.128479 
	C515.291931,377.273712 530.767273,376.285217 546.203369,375.008301 
	C563.131470,373.607971 580.067078,372.298859 597.002075,370.983459 
	C610.158936,369.961578 623.323914,369.041901 636.477844,367.984619 
	C652.250610,366.716888 668.013855,365.330505 683.784851,364.040039 
	C688.887085,363.622559 693.998840,363.314087 699.109558,363.010010 
	C716.267395,361.989166 733.437012,361.139648 750.582581,359.945129 
	C767.163574,358.789948 782.727173,353.517853 797.642395,346.616425 
	C828.522949,332.327667 859.202759,317.604523 889.940430,303.007996 
	C906.874939,294.966248 923.540039,286.316101 940.713074,278.826355 
	C974.217834,264.213745 1007.708252,249.487808 1041.765503,236.252121 
	C1062.149170,228.330399 1083.464478,222.663040 1104.606812,216.881485 
	C1121.228027,212.336288 1138.290283,210.039108 1155.584351,208.751602 
	C1174.561646,207.338745 1193.006226,208.750626 1211.636963,213.866119 
	C1212.000000,216.370560 1212.000000,218.741104 1211.577271,221.555054 
	C1203.896973,220.734390 1196.639771,219.467987 1189.381714,218.206833 
	C1178.289917,216.279572 1167.079956,215.725739 1155.968140,217.228851 
	C1145.927734,218.587036 1136.050781,221.117462 1126.070923,222.964737 
	C1101.246460,227.559738 1076.248169,232.016296 1052.924072,241.795807 
	C1018.273132,256.324554 984.066711,271.943390 949.941406,287.684235 
	C930.053162,296.858002 910.605469,307.006165 891.117126,317.022491 
	C870.846985,327.440613 848.974670,334.970581 831.201721,349.943024 
	C827.011963,353.472656 822.785278,356.958557 818.575562,360.464569 
	C818.811157,360.962006 819.046814,361.459473 819.282410,361.956909 
	C821.030090,361.956909 822.913940,362.388550 824.503296,361.886932 
	C834.955811,358.588318 845.870300,356.174988 855.652649,351.443604 
	C881.429810,338.976074 906.626587,325.315277 932.204285,312.426788 
	C957.938538,299.459442 983.682678,286.487640 1009.754211,274.222931 
	C1024.862061,267.115875 1040.415405,260.814178 1056.145142,255.207382 
	C1075.114990,248.445541 1094.433960,242.639557 1113.695801,236.726105 
	C1131.852051,231.152084 1150.431152,227.936737 1169.501465,227.991928 
	C1183.667480,228.032944 1197.833862,228.000000 1212.000000,228.000000 
	C1212.000000,231.030594 1212.000000,234.061188 1212.000000,237.545898 
M787.209961,374.643890 
	C784.363953,368.708923 774.277344,364.762390 768.360474,367.268799 
	C762.895813,369.583618 759.722595,376.416656 761.805847,381.383087 
	C764.850281,388.640930 770.768250,391.187897 779.553528,389.020935 
	C786.553589,387.294342 788.503784,384.014191 787.209961,374.643890 
z"/>
<path fill="#333030" opacity="1.000000" stroke="none" 
	d="
M1212.000000,227.571533 
	C1197.833862,228.000000 1183.667480,228.032944 1169.501465,227.991928 
	C1150.431152,227.936737 1131.852051,231.152084 1113.695801,236.726105 
	C1094.433960,242.639557 1075.114990,248.445541 1056.145142,255.207382 
	C1040.415405,260.814178 1024.862061,267.115875 1009.754211,274.222931 
	C983.682678,286.487640 957.938538,299.459442 932.204285,312.426788 
	C906.626587,325.315277 881.429810,338.976074 855.652649,351.443604 
	C845.870300,356.174988 834.955811,358.588318 824.503296,361.886932 
	C822.913940,362.388550 821.030090,361.956909 819.282410,361.956909 
	C819.046814,361.459473 818.811157,360.962006 818.575562,360.464569 
	C822.785278,356.958557 827.011963,353.472656 831.201721,349.943024 
	C848.974670,334.970581 870.846985,327.440613 891.117126,317.022491 
	C910.605469,307.006165 930.053162,296.858002 949.941406,287.684235 
	C984.066711,271.943390 1018.273132,256.324554 1052.924072,241.795807 
	C1076.248169,232.016296 1101.246460,227.559738 1126.070923,222.964737 
	C1136.050781,221.117462 1145.927734,218.587036 1155.968140,217.228851 
	C1167.079956,215.725739 1178.289917,216.279572 1189.381714,218.206833 
	C1196.639771,219.467987 1203.896973,220.734390 1211.577271,221.999207 
	C1212.000000,223.714355 1212.000000,225.428711 1212.000000,227.571533 
z"/>
<path fill="#333030" opacity="1.000000" stroke="none" 
	d="
M787.461792,374.969788 
	C788.503784,384.014191 786.553589,387.294342 779.553528,389.020935 
	C770.768250,391.187897 764.850281,388.640930 761.805847,381.383087 
	C759.722595,376.416656 762.895813,369.583618 768.360474,367.268799 
	C774.277344,364.762390 784.363953,368.708923 787.461792,374.969788 
z"/>
</svg>